<svg width="694" height="360" viewBox="0 0 694 360" fill="none" xmlns="http://www.w3.org/2000/svg">
<path d="M576.111 319.227C596.188 299.142 596.188 266.577 576.111 246.492C556.035 226.406 523.484 226.406 503.407 246.492C483.33 266.577 483.33 299.142 503.407 319.227C523.484 339.312 556.035 339.312 576.111 319.227Z" fill="#4FD8DF"/>
<path d="M592.854 137.941C592.311 137.746 591.767 137.55 591.224 137.376C583.768 127.894 575.834 118.804 567.486 110.127C502.034 42.2327 410.148 0 308.437 0C206.726 0 108.276 45.299 42.4973 117.521C36.5847 123.98 30.9111 130.678 25.4984 137.572C9.41244 160.515 0 188.438 0 218.579C0 238.695 4.19539 257.854 11.8036 275.187C15.173 282.907 19.2162 290.279 23.8681 297.195C49.2143 335.078 92.3638 360 141.361 360C165.75 360 188.727 353.824 208.748 342.929L389.954 246.22L490.774 192.418L492.991 191.243C507.033 184.045 522.924 180 539.771 180C546.857 180 553.791 180.718 560.487 182.088C607.332 191.678 642.59 233.171 642.59 282.863C642.59 295.803 652.133 306.502 664.589 308.286C665.806 308.481 667.045 308.568 668.306 308.568C682.501 308.568 694 297.064 694 282.863C694 216.318 651.872 159.601 592.854 137.941ZM491.947 136.115C491.578 136.267 491.208 136.397 490.817 136.506C490.795 136.528 490.774 136.528 490.774 136.528L486.752 137.92L282.352 208.249L228.747 226.691L226.508 227.474C218.878 229.996 210.726 231.366 202.248 231.366C159.686 231.366 125.188 196.854 125.188 154.295C125.188 124.349 142.252 98.4052 167.163 85.6397C169.989 84.1609 172.859 82.7474 175.75 81.3773C215.943 62.1747 260.94 51.4317 308.459 51.4317C378.128 51.4317 442.429 74.5488 494.056 113.541C494.078 113.541 494.1 113.563 494.121 113.585C494.534 113.846 494.926 114.15 495.295 114.476C498.056 116.847 499.795 120.348 499.795 124.241C499.795 129.569 496.556 134.157 491.947 136.115Z" fill="#4FD8DF"/>
</svg>
